<svg version="1.1" id="iconos" xmlns="http://www.w3.org/2000/svg" xmlns:xlink="http://www.w3.org/1999/xlink" fill="#ffffff" viewBox="0 0 3000 350"  > 
  <g>
    <polygon class="a" points="29.25 28.45 174.29 28.45 174.29 0 0 0 0 52.09 29.25 52.09 29.25 28.45"/>
    <path class="a" d="M519.3,193.51a64.62,64.62,0,0,1,33.26,8.81V171.47c-10.82-5.61-24.84-8.81-42.47-8.81-21.24,0-37.67,6-49.69,18.43a65.48,65.48,0,0,0-17.63,47.68v3.6a65.48,65.48,0,0,0,17.63,47.68c11.62,12.42,28.45,18.43,49.69,18.43,17.63,0,31.65-2.8,42.47-8.81V258.82a61,61,0,0,1-33.26,8.81c-22.84,0-37.26-14-37.26-36.46V230C482,207.53,496.46,193.51,519.3,193.51Z" transform="translate(-91.78 -101.75)"/>
    <path class="a" d="M301.34,201.12c0-6.41,5.61-9.62,16.42-9.62a74.53,74.53,0,0,1,36.87,10.82V171.47a105.38,105.38,0,0,0-42.88-8.81c-29.25,0-48.88,14.82-48.88,37.66,0,38.86,60.5,40.07,60.5,58.9,0,6.81-6.41,10.42-19.23,10.42a83.6,83.6,0,0,1-37.66-10.82v30.45a101.23,101.23,0,0,0,42.07,8.41c34.06,0,52.49-16.83,52.49-39.26C361.84,216.75,300.94,215.54,301.34,201.12Z" transform="translate(-91.78 -101.75)"/>
    <rect class="a" x="291.69" y="61.3" width="36.86" height="134.63"/>
    <polygon class="a" points="145.44 228.78 0 228.78 0 256.83 174.29 256.83 174.29 204.74 145.04 204.74 145.44 228.78"/>
    <path class="a" d="M244,229.17c0-41.27-24.44-67.32-64.11-67.32A65.14,65.14,0,0,0,113,230a69.37,69.37,0,0,0,18.83,48.88c12.82,12.82,31.25,19.23,54.89,19.23a95.65,95.65,0,0,0,42.07-8.81V258.82A74.36,74.36,0,0,1,190.75,268c-24,0-36.86-10-38.86-30.45H244Zm-90.95-15.63c3.6-14,14.42-23.64,28.44-23.64s23.24,8,26.85,23.64Z" transform="translate(-91.78 -101.75)"/>
  </g>
  <g>
    <path class="a" d="M301.59,348v11.42h-6.42V330.93h19.47v5H301.59v7.28H313V348Z" transform="translate(-91.78 -101.75)"/>
    <path class="a" d="M325.11,339.59a10.5,10.5,0,0,1,7.76,2.89,10.36,10.36,0,0,1,0,14.48,10.75,10.75,0,0,1-7.72,2.84,10.91,10.91,0,0,1-7.88-2.8,9.76,9.76,0,0,1-2.89-7.28,9.61,9.61,0,0,1,3-7.24A10.76,10.76,0,0,1,325.11,339.59Zm.05,4.66a4.65,4.65,0,0,0-3.6,1.53,5.45,5.45,0,0,0-1.4,3.85,5.75,5.75,0,0,0,1.36,4,4.62,4.62,0,0,0,3.64,1.51,4.67,4.67,0,0,0,3.66-1.55,5.76,5.76,0,0,0,1.38-4,5.49,5.49,0,0,0-1.4-3.85A4.72,4.72,0,0,0,325.16,344.25Z" transform="translate(-91.78 -101.75)"/>
    <path class="a" d="M344.59,340.2l.73,3.06h.22a6.41,6.41,0,0,1,2.39-2.63,6.15,6.15,0,0,1,3.34-.95,6.44,6.44,0,0,1,2.5.43v5.3a7.05,7.05,0,0,0-2.93-.65,4.19,4.19,0,0,0-3.43,1.66,7,7,0,0,0-1.31,4.46v8.49h-5.82V340.2Z" transform="translate(-91.78 -101.75)"/>
    <path class="a" d="M361.65,340.2l.74,2.32.17.13a7.55,7.55,0,0,1,6.25-3q4.35,0,5.9,3.7a7,7,0,0,1,6.33-3.75c2.47,0,4.26.71,5.35,2.11s1.63,3.6,1.63,6.55v11.12h-5.81V348.08a4.42,4.42,0,0,0-.8-2.76,2.64,2.64,0,0,0-2.22-1,3.24,3.24,0,0,0-2.69,1.29,6.27,6.27,0,0,0-1,3.92v9.87h-5.81V348.25a4.76,4.76,0,0,0-.8-2.91,2.63,2.63,0,0,0-2.22-1,3.26,3.26,0,0,0-2.71,1.33,6,6,0,0,0-1,3.75v10h-5.81V340.2Z" transform="translate(-91.78 -101.75)"/>
    <path class="a" d="M406.12,359.37l-.43-2.24h-.13c-1.52,1.81-3.78,2.71-6.76,2.71a6.66,6.66,0,0,1-4.68-1.53,5.12,5.12,0,0,1-1.66-3.94,5.92,5.92,0,0,1,2.31-4.89q2.3-1.83,6.66-1.83h3.74v-.39c0-2.32-1.46-3.49-4.39-3.49a12.59,12.59,0,0,0-5.95,1.64v-4.35a17.44,17.44,0,0,1,7.37-1.47q8.74,0,8.75,8.28v11.5Zm-8.06-5.86a2.06,2.06,0,0,0,.84,1.75,3.61,3.61,0,0,0,2.18.62,3.87,3.87,0,0,0,3-1.18,4.27,4.27,0,0,0,1.1-3v-.74h-3C399.43,350.92,398.06,351.79,398.06,353.51Z" transform="translate(-91.78 -101.75)"/>
    <path class="a" d="M426,339.59a13.83,13.83,0,0,1,5,.86v4.74a7.94,7.94,0,0,0-4.09-1,5.61,5.61,0,0,0-4.08,1.53,5.5,5.5,0,0,0-1.57,4.11,5.36,5.36,0,0,0,1.49,4,5.47,5.47,0,0,0,4,1.47,9.41,9.41,0,0,0,4.91-1.34v4.61a13.17,13.17,0,0,1-6.29,1.29,9.68,9.68,0,0,1-7.37-2.75,9.9,9.9,0,0,1-2.63-7.11,10.16,10.16,0,0,1,2.93-7.5A10.44,10.44,0,0,1,426,339.59Z" transform="translate(-91.78 -101.75)"/>
    <path class="a" d="M441.5,336.06a3.05,3.05,0,0,1-2.29.95,3.09,3.09,0,0,1-2.3-.95,3.14,3.14,0,0,1-.93-2.29,3.07,3.07,0,0,1,1-2.24,3.14,3.14,0,0,1,2.26-.94,3.11,3.11,0,0,1,3.19,3.18A3.19,3.19,0,0,1,441.5,336.06Zm.56,4.09v19.22h-5.91V340.15Z" transform="translate(-91.78 -101.75)"/>
    <path class="a" d="M457.61,339.59a10.51,10.51,0,0,1,7.76,2.89,10.36,10.36,0,0,1,0,14.48,10.75,10.75,0,0,1-7.72,2.84,10.91,10.91,0,0,1-7.88-2.8,9.76,9.76,0,0,1-2.89-7.28,9.61,9.61,0,0,1,3-7.24A10.76,10.76,0,0,1,457.61,339.59Zm.05,4.66a4.65,4.65,0,0,0-3.6,1.53,5.45,5.45,0,0,0-1.4,3.85,5.75,5.75,0,0,0,1.36,4,4.62,4.62,0,0,0,3.64,1.51,4.67,4.67,0,0,0,3.66-1.55,5.76,5.76,0,0,0,1.38-4,5.49,5.49,0,0,0-1.4-3.85A4.72,4.72,0,0,0,457.66,344.25Zm6.76-13-5.94,5.86h-3.32l5.13-7.72Z" transform="translate(-91.78 -101.75)"/>
    <path class="a" d="M491.83,347.18v12.19H486v-11a4.75,4.75,0,0,0-.88-2.95,2.79,2.79,0,0,0-2.31-1.14,3.83,3.83,0,0,0-3.06,1.36,5.77,5.77,0,0,0-1.16,3.85v9.87h-5.82V340.2h4.53a12,12,0,0,1,.38,1.5c.15.66.23,1,.26,1.12h.17a8.43,8.43,0,0,1,6.85-3.1,6.52,6.52,0,0,1,5.09,2A7.92,7.92,0,0,1,491.83,347.18Z" transform="translate(-91.78 -101.75)"/>
  </g>
  <g>
    <path class="a" d="M301.43,401.72H295v-28.4h10.9c3.45,0,6.11.94,8,2.8a9.57,9.57,0,0,1-.13,13.66,10.47,10.47,0,0,1-7.54,2.76h-4.74Zm3.36-23.61h-3.41v9.65h3.36a5.67,5.67,0,0,0,4.12-1.34,5,5,0,0,0-.07-6.93A5.49,5.49,0,0,0,304.79,378.11Z" transform="translate(-91.78 -101.75)"/>
    <path class="a" d="M324.61,382.55l.73,3.05h.22A6.45,6.45,0,0,1,328,383a6.15,6.15,0,0,1,3.34-1,6.47,6.47,0,0,1,2.5.43v5.3a7.05,7.05,0,0,0-2.93-.65,4.19,4.19,0,0,0-3.43,1.66,7,7,0,0,0-1.31,4.46v8.49H320.3V382.55Z" transform="translate(-91.78 -101.75)"/>
    <path class="a" d="M345.85,381.94a10.47,10.47,0,0,1,7.76,2.89,10.35,10.35,0,0,1-.05,14.48,10.71,10.71,0,0,1-7.71,2.84,10.91,10.91,0,0,1-7.88-2.8,9.76,9.76,0,0,1-2.89-7.28,9.6,9.6,0,0,1,3-7.24A10.76,10.76,0,0,1,345.85,381.94Zm0,4.66a4.67,4.67,0,0,0-3.59,1.52,5.49,5.49,0,0,0-1.4,3.86,5.79,5.79,0,0,0,1.35,4,5.13,5.13,0,0,0,7.31,0,5.76,5.76,0,0,0,1.38-4,5.54,5.54,0,0,0-1.4-3.86A4.75,4.75,0,0,0,345.89,386.6Z" transform="translate(-91.78 -101.75)"/>
    <path class="a" d="M374.63,371v4.48a9.49,9.49,0,0,0-3.18-.61c-2.62,0-3.92,1.53-3.92,4.57v3.06H373v4.35h-5.47v14.87h-5.78V386.85h-3.19v-3.74l3.19-.61v-3.19a9.13,9.13,0,0,1,2.24-6.59q2.24-2.33,6.51-2.33A15.36,15.36,0,0,1,374.63,371Z" transform="translate(-91.78 -101.75)"/>
    <path class="a" d="M383.77,381.9a9.16,9.16,0,0,1,7,2.69,10.31,10.31,0,0,1,2.54,7.35v1.29H379.63c.32,3,2.24,4.53,5.78,4.53a12.51,12.51,0,0,0,6.93-2.24v4.61a13.6,13.6,0,0,1-7.54,2.06c-3.53,0-6.24-.94-8.14-2.84a10.87,10.87,0,0,1,0-14.52A9.46,9.46,0,0,1,383.77,381.9Zm.22,4.18a4,4,0,0,0-2.68,1,4.74,4.74,0,0,0-1.5,2.56H388Q387.17,386.09,384,386.08Z" transform="translate(-91.78 -101.75)"/>
    <path class="a" d="M396.09,400.51V395.6a12.09,12.09,0,0,0,3.26,1.7,10,10,0,0,0,3.34.67c1.89,0,2.84-.52,2.84-1.55a1.78,1.78,0,0,0-.93-1.42,14.32,14.32,0,0,0-2.24-1.25c-.87-.4-1.75-.84-2.63-1.32a6.75,6.75,0,0,1-2.24-2,4.62,4.62,0,0,1-.92-2.84,4.91,4.91,0,0,1,2-4.12,8.47,8.47,0,0,1,5.24-1.53,15.89,15.89,0,0,1,6.33,1.34v4.61a11.05,11.05,0,0,0-5.47-1.59c-1.61,0-2.42.47-2.42,1.42,0,.37.31.74.91,1.1a15.44,15.44,0,0,0,2.22,1.07,25.36,25.36,0,0,1,2.63,1.28,6.73,6.73,0,0,1,2.22,2,5.26,5.26,0,0,1,.9,3,5.14,5.14,0,0,1-2.07,4.22,9,9,0,0,1-5.73,1.64A14.89,14.89,0,0,1,396.09,400.51Z" transform="translate(-91.78 -101.75)"/>
    <path class="a" d="M420.7,378.41a3.25,3.25,0,0,1-4.59,0,3.14,3.14,0,0,1-.93-2.29,3,3,0,0,1,1-2.24,3.14,3.14,0,0,1,2.26-.94,3.11,3.11,0,0,1,3.19,3.18A3.19,3.19,0,0,1,420.7,378.41Zm.56,4.09v19.22h-5.91V382.5Z" transform="translate(-91.78 -101.75)"/>
    <path class="a" d="M435.74,381.94a10.45,10.45,0,0,1,7.75,2.89,10.36,10.36,0,0,1,0,14.48,10.71,10.71,0,0,1-7.71,2.84,10.92,10.92,0,0,1-7.89-2.8,9.8,9.8,0,0,1-2.89-7.28,9.61,9.61,0,0,1,3-7.24A10.73,10.73,0,0,1,435.74,381.94Zm0,4.66a4.68,4.68,0,0,0-3.6,1.52,5.54,5.54,0,0,0-1.4,3.86,5.75,5.75,0,0,0,1.36,4,5.12,5.12,0,0,0,7.3,0,5.76,5.76,0,0,0,1.38-4,5.54,5.54,0,0,0-1.4-3.86A4.73,4.73,0,0,0,435.78,386.6Z" transform="translate(-91.78 -101.75)"/>
    <path class="a" d="M469.73,389.53v12.19h-5.81v-11a4.69,4.69,0,0,0-.89-3,2.78,2.78,0,0,0-2.3-1.14,3.81,3.81,0,0,0-3.06,1.36,5.72,5.72,0,0,0-1.17,3.85v9.87h-5.81V382.55h4.52a11.64,11.64,0,0,1,.39,1.5c.14.66.23,1,.26,1.12H456a8.41,8.41,0,0,1,6.85-3.1,6.5,6.5,0,0,1,5.09,2A8,8,0,0,1,469.73,389.53Z" transform="translate(-91.78 -101.75)"/>
    <path class="a" d="M487.61,401.72l-.43-2.24h-.13q-2.28,2.72-6.76,2.71a6.66,6.66,0,0,1-4.68-1.53,5.12,5.12,0,0,1-1.66-3.94,5.92,5.92,0,0,1,2.31-4.89q2.31-1.83,6.66-1.83h3.75v-.39c0-2.32-1.47-3.49-4.4-3.49a12.62,12.62,0,0,0-5.95,1.64v-4.35a17.47,17.47,0,0,1,7.37-1.47q8.74,0,8.75,8.27v11.51Zm-8.05-5.86a2.06,2.06,0,0,0,.84,1.75,3.58,3.58,0,0,0,2.17.62,3.85,3.85,0,0,0,3-1.19,4.28,4.28,0,0,0,1.1-3v-.74h-3C480.92,393.27,479.56,394.14,479.56,395.86Z" transform="translate(-91.78 -101.75)"/>
    <path class="a" d="M503.6,371.08v30.64h-5.86V371.08Z" transform="translate(-91.78 -101.75)"/>
    <path class="a" d="M529,400v-5.86a14.9,14.9,0,0,0,4.44,2.24,14.65,14.65,0,0,0,4.57.82,7.09,7.09,0,0,0,3.62-.79,2.58,2.58,0,0,0,1.33-2.35q0-2.55-4.78-4.66c-1.12-.48-1.94-.85-2.46-1.1a22.62,22.62,0,0,1-2.24-1.27,10.46,10.46,0,0,1-2.2-1.7,8.16,8.16,0,0,1-1.33-2,5.65,5.65,0,0,1-.56-2.67,7,7,0,0,1,2.67-5.73,11.1,11.1,0,0,1,7-2.15,19.93,19.93,0,0,1,8.49,1.81V380a13.78,13.78,0,0,0-3.66-1.63,13.14,13.14,0,0,0-3.79-.65,6.07,6.07,0,0,0-3.15.71,2.3,2.3,0,0,0-1.16,2.09,1.83,1.83,0,0,0,.36,1.1,3.93,3.93,0,0,0,1.1.95,11.52,11.52,0,0,0,1.47.77l1.89.86c.78.36,1.43.67,1.94.93a31.68,31.68,0,0,1,3.28,1.94,7.58,7.58,0,0,1,2.56,2.84,8.24,8.24,0,0,1,1,4,7.56,7.56,0,0,1-2.76,6q-2.67,2.37-7.8,2.37A19.18,19.18,0,0,1,529,400Z" transform="translate(-91.78 -101.75)"/>
    <path class="a" d="M553.54,394.44V382.5h5.82v11.12a4.53,4.53,0,0,0,.86,2.84,2.73,2.73,0,0,0,2.28,1.12,3.44,3.44,0,0,0,2.89-1.33,6.32,6.32,0,0,0,1-3.92v-9.78h5.82v19.17h-4.65l-.69-2.63h-.17a7.4,7.4,0,0,1-6.17,2.93Q553.54,402,553.54,394.44Z" transform="translate(-91.78 -101.75)"/>
    <path class="a" d="M583.06,400.13l-.09,0V411h-5.73V382.5h4.52l.69,2.59h.18a7.46,7.46,0,0,1,2.91-2.29,8.92,8.92,0,0,1,3.72-.82,9.34,9.34,0,0,1,7.11,2.72,11.25,11.25,0,0,1-.17,14.56,9.26,9.26,0,0,1-7,2.85,8.69,8.69,0,0,1-6-2Zm5.25-2.55a4.46,4.46,0,0,0,3.58-1.55,5.84,5.84,0,0,0,1.34-4,5.72,5.72,0,0,0-1.32-4,4.65,4.65,0,0,0-3.64-1.46,4.6,4.6,0,0,0-3.58,1.59,5.73,5.73,0,0,0-1.42,3.92,5.6,5.6,0,0,0,1.38,3.9A4.69,4.69,0,0,0,588.31,397.58Z" transform="translate(-91.78 -101.75)"/>
    <path class="a" d="M612.19,381.9a9.17,9.17,0,0,1,7,2.69,10.31,10.31,0,0,1,2.54,7.35v1.29H608.05q.48,4.53,5.77,4.53a12.52,12.52,0,0,0,6.94-2.24v4.61a13.63,13.63,0,0,1-7.54,2.06c-3.53,0-6.25-.94-8.14-2.84a10.88,10.88,0,0,1-.05-14.52A9.48,9.48,0,0,1,612.19,381.9Zm.21,4.18a3.94,3.94,0,0,0-2.67,1,4.75,4.75,0,0,0-1.51,2.56h8.15Q615.59,386.09,612.4,386.08Z" transform="translate(-91.78 -101.75)"/>
    <path class="a" d="M630.33,382.55l.73,3.05h.21a6.54,6.54,0,0,1,2.4-2.62,6.15,6.15,0,0,1,3.34-1,6.38,6.38,0,0,1,2.49.43v5.3a7,7,0,0,0-2.93-.65,4.17,4.17,0,0,0-3.42,1.66,7,7,0,0,0-1.32,4.46v8.49H626V382.55Z" transform="translate(-91.78 -101.75)"/>
    <path class="a" d="M648.21,378.41a3.05,3.05,0,0,1-2.29.95,3.09,3.09,0,0,1-2.3-.95,3.14,3.14,0,0,1-.93-2.29,3.07,3.07,0,0,1,1-2.24,3.14,3.14,0,0,1,2.26-.94,3.11,3.11,0,0,1,3.19,3.18A3.19,3.19,0,0,1,648.21,378.41Zm.56,4.09v19.22h-5.91V382.5Z" transform="translate(-91.78 -101.75)"/>
    <path class="a" d="M663.25,381.94a10.45,10.45,0,0,1,7.75,2.89,10.36,10.36,0,0,1,0,14.48,10.71,10.71,0,0,1-7.71,2.84,10.94,10.94,0,0,1-7.89-2.8,9.8,9.8,0,0,1-2.89-7.28,9.61,9.61,0,0,1,3-7.24A10.74,10.74,0,0,1,663.25,381.94Zm0,4.66a4.7,4.7,0,0,0-3.6,1.52,5.54,5.54,0,0,0-1.4,3.86,5.75,5.75,0,0,0,1.36,4,5.12,5.12,0,0,0,7.3,0,5.76,5.76,0,0,0,1.38-4,5.54,5.54,0,0,0-1.4-3.86A4.73,4.73,0,0,0,663.29,386.6Z" transform="translate(-91.78 -101.75)"/>
    <path class="a" d="M682.51,382.55l.73,3.05h.22a6.45,6.45,0,0,1,2.39-2.62,6.15,6.15,0,0,1,3.34-1,6.47,6.47,0,0,1,2.5.43v5.3a7.05,7.05,0,0,0-2.93-.65,4.19,4.19,0,0,0-3.43,1.66,7,7,0,0,0-1.31,4.46v8.49H678.2V382.55Z" transform="translate(-91.78 -101.75)"/>
  </g>


</svg>
